<svg width="37" height="37" viewBox="0 0 37 37" fill="none" xmlns="http://www.w3.org/2000/svg">
<g clip-path="url(#clip0)">
<path d="M11.9961 23.9202H31.5804C32.0653 23.9202 32.4907 23.5995 32.622 23.1338L36.9582 7.95769C37.0514 7.63052 36.9876 7.27907 36.7824 7.00723C36.5769 6.73623 36.2573 6.57617 35.9163 6.57617H9.49361L8.71873 3.08936C8.60864 2.59281 8.16827 2.24023 7.66016 2.24023H1.08398C0.48497 2.24023 0 2.7252 0 3.32422C0 3.92352 0.48497 4.4082 1.08398 4.4082H6.79015L10.7046 22.0229C9.55289 22.5237 8.74414 23.6701 8.74414 25.0042C8.74414 26.7973 10.203 28.2561 11.9961 28.2561H31.5804C32.1797 28.2561 32.6643 27.7715 32.6643 27.1722C32.6643 26.5731 32.1797 26.0882 31.5804 26.0882H11.9961C11.3991 26.0882 10.9121 25.6024 10.9121 25.0042C10.9121 24.406 11.3991 23.9202 11.9961 23.9202Z" />
<path d="M10.9121 31.5081C10.9121 33.3015 12.371 34.76 14.1643 34.76C15.9574 34.76 17.4163 33.3015 17.4163 31.5081C17.4163 29.715 15.9574 28.2561 14.1643 28.2561C12.371 28.2561 10.9121 29.715 10.9121 31.5081Z"/>
<path d="M26.1604 31.5081C26.1604 33.3015 27.6193 34.76 29.4124 34.76C31.2058 34.76 32.6643 33.3015 32.6643 31.5081C32.6643 29.715 31.2058 28.2561 29.4124 28.2561C27.6193 28.2561 26.1604 29.715 26.1604 31.5081Z"/>
</g>
<defs>
<clipPath id="clip0">
<rect width="37" height="37" fill="white"/>
</clipPath>
</defs>
</svg>
