<svg width="29" height="29" viewBox="0 0 29 29" fill="none" xmlns="http://www.w3.org/2000/svg">
<g clip-path="url(#clip0)">
<path d="M12.3855 13.5938H0.90625C0.405998 13.5938 0 13.1878 0 12.6875C0 12.1872 0.405998 11.7812 0.90625 11.7812H12.3855C12.8857 11.7812 13.2917 12.1872 13.2917 12.6875C13.2917 13.1878 12.8857 13.5938 12.3855 13.5938Z"/>
<path d="M7.85427 18.125C7.62218 18.125 7.3903 18.0367 7.21375 17.8593C6.85974 17.5051 6.85974 16.9311 7.21375 16.5771L11.1047 12.6864L7.21375 8.79678C6.85974 8.44255 6.85974 7.86862 7.21375 7.51462C7.56775 7.16061 8.14168 7.16061 8.4959 7.51462L13.0272 12.0459C13.3812 12.3999 13.3812 12.9738 13.0272 13.328L8.4959 17.8593C8.31824 18.0367 8.08614 18.125 7.85427 18.125Z"/>
<path d="M19.4165 28.9953C18.0837 28.9953 17 27.9114 17 26.5786V4.82857C17 3.79554 17.6573 2.87358 18.6359 2.53396L25.8957 0.113676C27.5197 -0.384142 29.0833 0.820578 29.0833 2.41205V24.162C29.0833 25.194 28.4259 26.1146 27.4484 26.4553L20.1863 28.8769C19.9216 28.959 19.6765 28.9953 19.4165 28.9953ZM26.6665 1.80781C26.588 1.80781 26.5216 1.81754 26.4504 1.83922L19.2209 4.24977C18.984 4.33208 18.8125 4.57125 18.8125 4.82857V26.5786C18.8125 26.9908 19.2594 27.2687 19.6329 27.1514L26.8623 24.7408C27.098 24.6585 27.2708 24.4194 27.2708 24.162V2.41205C27.2708 2.07973 27.0002 1.80781 26.6665 1.80781Z"/>
<path d="M10.573 6.04174C10.0727 6.04174 9.66675 5.63574 9.66675 5.13549V3.32299C9.66675 1.48991 11.1564 0 12.9895 0H26.5833C27.0835 0 27.4895 0.405998 27.4895 0.90625C27.4895 1.4065 27.0835 1.8125 26.5833 1.8125H12.9895C12.1569 1.8125 11.4792 2.49042 11.4792 3.32299V5.13549C11.4792 5.63574 11.0732 6.04174 10.573 6.04174Z"/>
<path d="M18.1562 25.0417H13.3228C11.4897 25.0417 10 23.5518 10 21.7187V19.9062C10 19.406 10.406 19 10.9062 19C11.4065 19 11.8125 19.406 11.8125 19.9062V21.7187C11.8125 22.5513 12.4902 23.2292 13.3228 23.2292H18.1562C18.6565 23.2292 19.0625 23.6352 19.0625 24.1355C19.0625 24.6357 18.6565 25.0417 18.1562 25.0417Z"/>
</g>
<defs>
<clipPath id="clip0">
<rect width="29" height="29"/>
</clipPath>
</defs>
</svg>
