<svg width="70" height="70" viewBox="0 0 70 70" color="inherit" xmlns="http://www.w3.org/2000/svg">
<g clip-path="url(#clip0)">
<path d="M35.1767 8.92416C36.5531 13.7853 33.8689 18.6385 29.4696 20.2986C24.2965 22.2508 18.5038 19.3266 17.0675 13.9083L10.5754 15.6949C9.44934 39.0369 30.9794 60.5497 54.3052 59.4248L60.1355 38.2378C54.1861 36.63 50.3988 30.492 51.9352 24.2828C53.4777 18.0491 59.9118 14.1367 66.2799 15.9091L69.9219 2.6748C70.3566 1.09514 68.9051 -0.356473 67.3253 0.0782138L35.1767 8.92416ZM40.3495 16.958C40.9156 15.9372 42.201 15.5683 43.2204 16.1329L46.1278 17.745C47.1486 18.3095 47.5175 19.595 46.9515 20.6158C46.3929 21.623 45.1189 22.0102 44.0807 21.4395L41.1732 19.8288C40.1538 19.2627 39.7849 17.9772 40.3495 16.958ZM24.8014 29.8083H21.4773C20.3114 29.8083 19.3653 28.8636 19.3653 27.6964C19.3653 26.5305 20.3114 25.5844 21.4773 25.5844H24.8014C25.9671 25.5844 26.9134 26.5305 26.9134 27.6964C26.9134 28.8636 25.9671 29.8083 24.8014 29.8083ZM29.7363 35.9837C29.7363 31.733 33.1957 28.275 37.4463 28.275C41.6956 28.275 45.1535 31.733 45.1535 35.9837C45.1535 40.2343 41.6955 43.6923 37.4463 43.6923C33.1957 43.6922 29.7363 40.2343 29.7363 35.9837ZM47.6159 52.4653L44.2931 52.3611C43.1273 52.3259 42.2122 51.3516 42.2474 50.1859C42.284 49.0187 43.2569 48.1021 44.4241 48.1401L47.7469 48.2429C48.9127 48.2795 49.8278 49.2538 49.7927 50.4196C49.7582 51.495 48.9097 52.4653 47.6159 52.4653ZM60.8521 8.70016L59.0288 11.4809C58.3905 12.4541 57.0841 12.7309 56.1059 12.0893C55.1301 11.4501 54.857 10.1406 55.4962 9.1649L57.3195 6.38563C57.9587 5.40988 59.2681 5.13674 60.2438 5.77594C61.2197 6.41651 61.4913 7.72455 60.8521 8.70016Z" />
<path d="M54.7895 63.6291C28.7497 65.0719 4.93184 41.1913 6.37123 15.2106C6.42394 14.2262 5.57254 13.4183 4.56207 13.6125C3.25843 13.8754 4.00221 13.7253 1.53217 14.2236C0.894348 14.3532 0.409975 14.867 0.329819 15.5035C-3.39308 44.9982 25.028 73.3901 54.4966 69.6706C55.1331 69.5903 55.647 69.1059 55.7765 68.4682C56.273 66.0071 56.1241 66.7456 56.3876 65.4383C56.5862 64.4516 55.7893 63.5754 54.7895 63.6291Z" />
<path d="M27.9164 16.3662C30.3833 15.4696 31.8975 12.7569 31.1077 10.0434L21.1338 12.7889C21.8761 15.7124 25.0206 17.4186 27.9164 16.3662Z" />
<path d="M55.9712 25.5836C55.1873 29.4052 57.5064 33.1667 61.2562 34.1674L65.1604 19.9807H65.159C61.0062 18.8176 56.8157 21.466 55.9712 25.5836Z" />
<path d="M37.4463 32.4989C35.5244 32.4989 33.9601 34.0617 33.9601 35.9837C33.9601 37.9055 35.5244 39.4685 37.4463 39.4685C39.3667 39.4685 40.9295 37.9057 40.9295 35.9837C40.9295 34.0619 39.3667 32.4989 37.4463 32.4989Z" />
</g>
<defs>
<clipPath id="clip0">
<rect width="70" height="70" fill="white"/>
</clipPath>
</defs>
</svg>
