<svg width="870" height="420" xmlns="http://www.w3.org/2000/svg" xmlns:svg="http://www.w3.org/2000/svg">
    <title>
        Alex pizza
    </title>
    <g id="svg_1" stroke="null">
        <rect id="svg_2" height="16.05556" width="42.94444" y="-5.25588" x="3.81829" transform="matrix(7.943673782515649,0.9302255294674471,-0.9302235316401811,7.943673851122006,42.05149914445204,106.36411875742428) " fill="transparent" stroke="null"/>
        <g id="svg_3" transform="matrix(7.943673782515649,0.9302255294674471,-0.9302235316401811,7.943673851122006,42.05149914445204,106.36411875742428) " stroke="null">
            <path id="svg_4" d="m5.70719,7.74412c0,0 2.16666,-9 2.16666,-9c0,0 -2.33333,-0.22223 -2.33333,-0.22223c-0.16667,-0.38888 -0.22222,-0.88888 -0.22222,-1.38888c0,-0.38889 0,-0.77778 0.11111,-1.16667c0.94444,-0.16667 2.05556,-0.33333 3.27778,-0.38889c1.22222,-0.05556 2.27778,-0.16667 3.16666,-0.16667c0.61112,0 1.11112,0.05556 1.44445,0.05556c0,0 0.61111,0.33333 0.61111,0.33333c1.11111,3 2.22222,7.05556 3.33333,12.16667c0,0.05555 0,0.16667 0.05556,0.33333c0.05555,0.16667 0.11111,0.27778 0.11111,0.44445c0,0 0,0.38889 0,0.38889c0,0.55555 -0.16667,1 -0.55556,1.33333c-0.55555,0.22222 -1.22222,0.33333 -2,0.33333c-0.38888,0 -0.72222,-0.11111 -1.11111,-0.16666c-0.38889,-0.05556 -0.61111,-0.16667 -0.72222,-0.33334c0,0 0.11111,-2.5 0.11111,-2.5c0,0 -0.27778,-1.33333 -0.27778,-1.33333c-0.44444,0 -0.88888,0.05555 -1.44444,0.05555c-0.61111,0 -1.16667,0 -1.72222,-0.05555c0,0 -0.16667,0.5 -0.16667,0.5c-0.27778,1.11111 -0.44444,1.94444 -0.61111,2.44444c-0.16667,0.5 -0.33333,0.83334 -0.66667,1.05556c-0.33333,0.22222 -0.77777,0.33333 -1.38889,0.33333c-0.38888,0 -0.83333,-0.05555 -1.22222,-0.16666c-0.38889,-0.11112 -0.77778,-0.22223 -1.11111,-0.38889c-0.33333,-0.16667 -0.55555,-0.33334 -0.72222,-0.55556c0,-0.44444 0.05555,-0.88889 0.22222,-1.33333c0.16667,-0.44445 0.38889,-0.72222 0.61111,-0.88889c0.38889,0.11111 0.72222,0.22222 1.05556,0.27778c0,0 0,0 0,0m5.77778,-8.88889c0,0 -0.44445,0 -0.44445,0c0,0 -0.72222,4.83333 -0.72222,4.83333c0,0 2.22222,0 2.22222,0c0,0 -1.05555,-4.83333 -1.05555,-4.83333m6.61111,-1.05556c-0.11111,-0.38889 -0.11111,-0.72222 -0.16667,-1c-0.05556,-0.27778 -0.05556,-0.55555 -0.05556,-0.88889c0.11112,-0.16666 0.38889,-0.38889 0.66667,-0.55555c0.27778,-0.16667 0.61111,-0.33334 1,-0.44445c0.38889,-0.11111 0.72222,-0.16666 1.16667,-0.16666c0.83333,0 1.44444,0.22222 1.88889,0.61111c0.44444,0.38889 0.66666,1 0.66666,1.77778c0,0.55555 -0.05555,1.5 -0.16666,2.77777c-0.11111,1.27778 -0.22223,2.61111 -0.38889,4.05556c-0.16667,1.44444 -0.38889,2.66667 -0.61111,3.72222c0,0 0,0.05556 0,0.05556c0,0 1.44444,-0.61111 1.44444,-0.61111c0.5,0.44444 0.77778,1 0.88889,1.72222c0,0.05555 -0.16667,0.22222 -0.44444,0.55555c-0.27778,0.33334 -0.66667,0.66667 -1.16667,0.94445c-0.5,0.27778 -1,0.44444 -1.61111,0.44444c-0.66667,0 -1.22222,-0.22222 -1.61111,-0.55555c-0.38889,-0.33334 -0.55556,-0.94445 -0.55556,-1.83334c0,0 0,-1.77777 0,-1.77777c0,-1.66667 0,-3.16667 0.05556,-4.5c0.05555,-1.33334 0.11111,-2.66667 0.22222,-4.11112c0,0 -1.22222,-0.22222 -1.22222,-0.22222m7.66666,4.11111c0.38889,-0.88889 1,-1.61111 1.77778,-2.11111c0.77778,-0.5 1.77778,-0.77778 2.94445,-0.77778c0.61111,0 1.22222,0.05556 1.83333,0.22223c0.61111,0.16666 1.16667,0.38889 1.61111,0.72222c0.38889,0.33333 0.66667,0.77778 0.83333,1.27778c0.16667,0.5 0.27778,1.11111 0.27778,1.72222c0,0.44444 -0.05555,0.83333 -0.11111,1.27778c-0.05556,0.11111 -0.22222,0.27777 -0.44444,0.5c-0.22223,0.22222 -0.5,0.44444 -0.83334,0.66666c-0.33333,0.22223 -0.61111,0.33334 -0.88889,0.44445c-0.27777,0 -0.55555,0.05555 -0.83333,0.05555c-0.5,0 -1.05556,-0.05555 -1.55556,-0.11111c-0.5,-0.05555 -1,-0.05555 -1.38888,-0.11111c0.05555,0.55556 0.22222,1.05556 0.5,1.44445c0.27777,0.38888 0.77777,0.61111 1.38888,0.61111c0.05556,0 0.16667,-0.05556 0.27778,-0.05556c0.38889,-0.05555 0.83334,-0.11111 1.38889,-0.27778c0.55556,-0.16666 1.05556,-0.38889 1.55556,-0.61111c0.22222,0.22222 0.44444,0.5 0.55555,0.72222c0.11111,0.22223 0.22222,0.61112 0.27778,1.05556c-0.22222,0.22222 -0.55556,0.55556 -1,0.88889c-0.44444,0.33333 -1,0.61111 -1.66667,0.88889c-0.66666,0.27778 -1.33333,0.44444 -2.05555,0.44444c-1.05556,0 -1.94445,-0.27778 -2.72222,-0.77778c-0.77778,-0.5 -1.33334,-1.22222 -1.72223,-2.11111c-0.38889,-0.88889 -0.55555,-1.88889 -0.55555,-3c0,-1.11111 0.16666,-2.11111 0.55555,-3c0,0 0,0 0,0m5.72223,0.72223c-0.11112,-0.11112 -0.22223,-0.16667 -0.44445,-0.22223c-0.22222,-0.05555 -0.44444,-0.05555 -0.66667,-0.05555c-0.16666,0 -0.44444,0 -0.61111,0.05555c-0.16666,0.05556 -0.27777,0.05556 -0.33333,0.11111c-0.22222,0.44445 -0.33333,0.88889 -0.38889,1.44445c0,0 2.55556,-0.22222 2.55556,-0.22222c0,0 -0.11111,-1.11111 -0.11111,-1.11111m5.33333,3.55555c0.33333,-0.16667 0.66667,-0.27778 1.16667,-0.33333c0.11111,0.05555 0.22222,0.22222 0.38888,0.44444c0.22223,0.33334 0.22223,0.33334 0.27778,0.38889c0,0 0.16667,0.33333 0.16667,0.33333c0,0 0.83333,-2.05555 0.83333,-2.05555c0,0 -1.27778,-1.94445 -1.27778,-1.94445c0,0 -1.16666,0.61112 -1.16666,0.61112c0,0 -1.22222,-1.33334 -1.22222,-1.33334c0.11111,-0.44444 0.27777,-0.94444 0.55555,-1.44444c0.27778,-0.5 0.66667,-0.94445 1.11111,-1.27778c0.44445,-0.33333 1,-0.55556 1.61111,-0.55556c1.38889,0 2.16667,1.33334 2.38889,4.05556c0,0 0.11111,0 0.11111,0c0.16667,-1 0.33334,-1.77778 0.44445,-2.27778c0.11111,-0.5 0.33333,-0.94444 0.55555,-1.16666c0.33334,-0.44445 0.77778,-0.61112 1.33334,-0.61112c0.38889,0 0.72222,0.11112 1.05555,0.33334c0.33334,0.22222 0.66667,0.55555 0.88889,1c0.22222,0.44444 0.38889,0.83333 0.5,1.22222c0.11111,0.38889 0.22222,0.77778 0.22222,1.22222c-0.27777,0.33334 -0.55555,0.55556 -0.94444,0.77778c-0.38889,0.22222 -0.77778,0.33333 -1.16667,0.38889c-0.11111,-0.11111 -0.22222,-0.27778 -0.44444,-0.55556c-0.22222,-0.27777 -0.33334,-0.5 -0.44445,-0.66666c0,0 -1.11111,2.22222 -1.11111,2.22222c0,0 1.5,2 1.5,2c0,0 1.22222,-0.94445 1.22222,-0.94445c0,0 1.33334,1.05556 1.33334,1.05556c-0.05556,0.55556 -0.16667,1.16667 -0.44445,1.72222c-0.27777,0.55556 -0.61111,1 -1.05555,1.38889c-0.44445,0.38889 -0.94445,0.61111 -1.55556,0.61111c-0.61111,0 -1.05555,-0.22222 -1.44444,-0.61111c-0.38889,-0.38889 -0.66667,-0.88889 -0.83334,-1.38889c-0.16666,-0.5 -0.38888,-1.11111 -0.55555,-1.88889c0,0 -0.22222,0 -0.22222,0c-0.11111,0.66667 -0.22223,1.27778 -0.38889,1.77778c-0.16667,0.5 -0.38889,1 -0.72222,1.44445c-0.33334,0.44444 -0.72223,0.66666 -1.27778,0.66666c-0.44445,0 -0.88889,-0.22222 -1.22222,-0.66666c-0.33334,-0.44445 -0.55556,-0.94445 -0.77778,-1.55556c-0.22222,-0.61111 -0.33334,-1.11111 -0.33334,-1.55556c0.33334,-0.38888 0.61112,-0.66666 0.94445,-0.83333c0,0 0,0 0,0" fill="#454545" stroke="null"/>
        </g>
    </g>
    <g id="svg_62">
        <g id="svg_5" stroke="null">
            <rect fill="transparent" transform="matrix(8.562433726348537,0,0,8.562432811691153,28.310203169556132,-851.138639470769) " x="7.75874" y="124.37142" width="53.11111" height="16.16667" id="svg_6"/>
            <g transform="matrix(8.562433726348537,0,0,8.562432811691153,28.310203169556132,-851.138639470769) " id="svg_7" stroke="null">
                <defs>
                    <linearGradient x1="0" y1="0" x2="0" y2="1" id="gradient23" gradientTransform="rotate(0 .5 .5)">
                        <stop offset="0" stop-color="#b9b43f"/>
                        <stop offset="1" stop-color="#f11e28"/>
                    </linearGradient>
                    <pattern height="100" width="100" y="0" x="0" patternUnits="userSpaceOnUse" id="gridpattern">
                        <image height="100" width="100" y="0" x="0"/>
                    </pattern>
                </defs>
                <path fill="url(#gradient23)" d="m9.36985,133.09363c0,-1.94445 0,-3.5 0.05556,-4.55556c0,0 0,0 0,0c0,0 -1.38889,-0.16666 -1.38889,-0.16666c-0.11111,-0.22223 -0.11111,-0.55556 -0.16667,-0.83334c-0.05555,-0.27778 -0.11111,-0.55555 -0.11111,-0.83333c0,-0.22222 0,-0.44445 0.05556,-0.66667c0.77778,-0.27778 1.94444,-0.55555 3.33333,-0.66666c1.38889,-0.11112 2.77778,-0.16667 4.05556,-0.16667c1,0 1.83333,0.05555 2.55555,0.22222c0.72222,0.16667 1.33334,0.5 1.83334,1.05556c0.5,0.55555 0.72222,1.33333 0.72222,2.44444c0,0.55556 -0.16667,1.22222 -0.38889,1.94445c-0.22222,0.72222 -0.5,1.44444 -0.83333,2.11111c-0.33334,0.66666 -0.77778,1.22222 -1.11112,1.66666c-0.5,0.61111 -1.05555,1 -1.72222,1.11111c-1.05555,0.16667 -2.22222,0.22223 -3.38889,0.22223c0,0.66666 -0.05555,1.16666 -0.05555,1.44444c0,0 1.44444,-0.05555 1.44444,-0.05555c0.27778,0.5 0.44445,1.05555 0.5,1.72222c0,0.05555 -0.16666,0.16666 -0.44444,0.38889c-0.27778,0.22222 -0.61111,0.5 -1.11111,0.72222c-0.5,0.22222 -1.05556,0.27778 -1.66667,0.27778c-0.61111,0 -1.05556,-0.16667 -1.44444,-0.5c-0.38889,-0.33334 -0.55556,-0.88889 -0.55556,-1.72223c-0.11111,-1.33333 -0.16667,-3.05555 -0.16667,-5.16666c0,0 0,0 0,0c0,0 0,0 0,0m6.61111,-2.11111c0.11112,-0.77778 0.16667,-1.5 0.16667,-2.11111c-0.05555,-0.05556 -0.22222,-0.11112 -0.5,-0.16667c-0.27778,-0.05556 -0.66667,-0.05556 -1.16667,-0.05556c-0.33333,0 -0.72222,0.05556 -1.22222,0.05556c-0.05555,1.94444 -0.11111,3.55555 -0.22222,4.72222c0,0 2.5,-0.16667 2.5,-0.16667c0.16667,-0.72222 0.33333,-1.5 0.44444,-2.27777c0,0 0,0 0,0m6,-6.05556c0.38889,-0.33333 0.94445,-0.55555 1.77778,-0.55555c0.83334,0 1.38889,0.22222 1.77778,0.55555c0.38889,0.33333 0.61111,0.83333 0.61111,1.38889c0,0.33333 -0.11111,0.61111 -0.33333,0.88889c-0.22222,0.27778 -0.5,0.5 -0.88889,0.66667c-0.38889,0.16666 -0.77778,0.22222 -1.16667,0.22222c-0.44444,0 -0.77778,-0.11111 -1.16666,-0.27778c-0.38889,-0.16667 -0.61112,-0.44444 -0.83334,-0.72222c-0.22222,-0.27778 -0.33333,-0.5 -0.33333,-0.77778c0,-0.55556 0.16667,-1.05556 0.55555,-1.38889c0,0 0,0 0,0m-1.05555,6.94445c-0.11111,-0.33334 -0.11111,-0.55556 -0.16667,-0.83334c-0.05555,-0.27778 -0.05555,-0.55555 -0.05555,-0.83333c0,0 0,-0.27778 0,-0.27778c0.11111,-0.16667 0.38889,-0.38889 0.66666,-0.55555c0.27778,-0.16667 0.61111,-0.33334 1,-0.44445c0.38889,-0.11111 0.77778,-0.16667 1.22223,-0.16667c0.88888,0 1.55555,0.22223 1.94444,0.61112c0.38889,0.38888 0.55556,1 0.55556,1.88888c0,0.5 -0.05556,1.22223 -0.22223,2.05556c-0.16666,0.83333 -0.27777,1.66667 -0.5,2.44444c-0.22222,0.77778 -0.38889,1.33334 -0.55555,1.66667c0,0 0.05555,0.05556 0.05555,0.05556c0,0 1.44445,-0.55556 1.44445,-0.55556c0.27778,0.22222 0.44444,0.5 0.55555,0.77778c0.11111,0.27778 0.22223,0.55555 0.27778,0.88889c0,0.05555 -0.16667,0.22222 -0.44444,0.55555c-0.27778,0.33334 -0.66667,0.66667 -1.11111,0.94445c-0.44445,0.27778 -1.05556,0.44444 -1.66667,0.44444c-0.61111,0 -1.11111,-0.22222 -1.5,-0.55555c-0.38889,-0.33334 -0.61111,-0.88889 -0.61111,-1.72223c0,-0.94444 0.05555,-2 0.11111,-3.05555c0.05555,-1.05556 0.11111,-2.11111 0.22222,-3.11111c0,0 -1.22222,-0.22222 -1.22222,-0.22222m7.16667,4.5c0.22222,-0.44445 0.61111,-0.77778 1.11111,-1.05556c0.16666,0 0.33333,0.11111 0.61111,0.22222c0.27778,0.11111 0.61111,0.27778 0.94444,0.5c0,0 1.77778,-3.44444 1.77778,-3.44444c0,0 -3.88889,0.66666 -3.88889,0.66666c-0.27778,-0.27777 -0.5,-0.61111 -0.66667,-0.88888c-0.16666,-0.27778 -0.22222,-0.61112 -0.22222,-1.05556c0,-0.27778 0.05556,-0.55556 0.11111,-0.83333c0.11111,-0.55556 0.38889,-1 0.72223,-1.27778c0.33333,-0.27778 0.83333,-0.44445 1.33333,-0.44445c0.22222,0 0.38889,0 0.61111,0.05556c0.66667,0.11111 1.33333,0.33333 1.94444,0.55556c0.61112,0.22222 1,0.44444 1.33334,0.66666c0.11111,-0.22222 0.33333,-0.44444 0.61111,-0.66666c0.27778,-0.22223 0.5,-0.38889 0.83333,-0.55556c0.33334,-0.16667 0.61111,-0.27778 0.94445,-0.27778c0.27777,0.11111 0.55555,0.33334 0.77777,0.66667c0.22223,0.33333 0.38889,0.66667 0.5,1.11111c0.11112,0.44444 0.16667,0.83333 0.16667,1.27778c0,0.38889 -0.05555,0.77778 -0.16667,1.11111c-0.11111,0.11111 -0.22222,0.16667 -0.38888,0.22222c-0.16667,0.05556 -0.33334,0.05556 -0.5,0.05556c-0.11112,0 -0.27778,-0.05556 -0.38889,-0.05556c-0.27778,0.44445 -0.77778,1.11111 -1.5,1.94445c-0.72223,0.83333 -1.33334,1.5 -1.83334,2c0,0 2.16667,0.27777 2.16667,0.27777c0,0 0.94444,-2.33333 0.94444,-2.33333c0,0 1.44445,0.27778 1.44445,0.27778c0.11111,0.22222 0.16667,0.5 0.22222,0.88889c0.05556,0.38889 0.11111,0.77777 0.11111,1.16666c0,0.5 -0.05555,0.94445 -0.16666,1.38889c-0.11112,0.44445 -0.22223,0.83334 -0.44445,1.11111c-0.44444,0.61111 -1.05555,0.88889 -1.83333,0.88889c-0.55556,0 -1.11111,-0.16666 -1.77778,-0.5c-0.66667,-0.33333 -1.27778,-0.72222 -1.83333,-1.16666c-0.22223,0.33333 -0.44445,0.61111 -0.61111,0.83333c-0.16667,0.22222 -0.38889,0.38889 -0.66667,0.55555c-0.27778,0.16667 -0.55556,0.27778 -0.94445,0.27778c-0.27777,-0.11111 -0.61111,-0.27778 -0.88888,-0.55555c-0.27778,-0.27778 -0.44445,-0.66667 -0.61112,-1.05556c-0.16666,-0.38889 -0.27777,-0.77778 -0.27777,-1.22222c0,-0.5 0.16666,-0.88889 0.38889,-1.33333c0,0 0,0 0,0m11.05555,0c0.22222,-0.44445 0.61111,-0.77778 1.11111,-1.05556c0.16667,0 0.33334,0.11111 0.61111,0.22222c0.27778,0.11111 0.61111,0.27778 0.94445,0.5c0,0 1.77778,-3.44444 1.77778,-3.44444c0,0 -3.88889,0.66666 -3.88889,0.66666c-0.27778,-0.27777 -0.5,-0.61111 -0.66667,-0.88888c-0.16667,-0.27778 -0.22222,-0.61112 -0.22222,-1.05556c0,-0.27778 0.05555,-0.55556 0.11111,-0.83333c0.11111,-0.55556 0.38889,-1 0.72222,-1.27778c0.33333,-0.27778 0.83333,-0.44445 1.33333,-0.44445c0.22223,0 0.38889,0 0.61112,0.05556c0.66666,0.11111 1.33333,0.33333 1.94444,0.55556c0.61111,0.22222 1,0.44444 1.33333,0.66666c0.11111,-0.22222 0.33334,-0.44444 0.61111,-0.66666c0.27778,-0.22223 0.5,-0.38889 0.83334,-0.55556c0.33333,-0.16667 0.61111,-0.27778 0.94444,-0.27778c0.27778,0.11111 0.55556,0.33334 0.77778,0.66667c0.22222,0.33333 0.38889,0.66667 0.5,1.11111c0.11111,0.44444 0.16667,0.83333 0.16667,1.27778c0,0.38889 -0.05556,0.77778 -0.16667,1.11111c-0.11111,0.11111 -0.22222,0.16667 -0.38889,0.22222c-0.16667,0.05556 -0.33333,0.05556 -0.5,0.05556c-0.11111,0 -0.27778,-0.05556 -0.38889,-0.05556c-0.27778,0.44445 -0.77778,1.11111 -1.5,1.94445c-0.72222,0.83333 -1.33333,1.5 -1.83333,2c0,0 2.16667,0.27777 2.16667,0.27777c0,0 0.94444,-2.33333 0.94444,-2.33333c0,0 1.44444,0.27778 1.44444,0.27778c0.11112,0.22222 0.16667,0.5 0.22223,0.88889c0.05555,0.38889 0.11111,0.77777 0.11111,1.16666c0,0.5 -0.05556,0.94445 -0.16667,1.38889c-0.11111,0.44445 -0.22222,0.83334 -0.44444,1.11111c-0.44445,0.61111 -1.05556,0.88889 -1.83334,0.88889c-0.55555,0 -1.11111,-0.16666 -1.77777,-0.5c-0.66667,-0.33333 -1.27778,-0.72222 -1.83334,-1.16666c-0.22222,0.33333 -0.44444,0.61111 -0.61111,0.83333c-0.16667,0.22222 -0.38889,0.38889 -0.66667,0.55555c-0.27777,0.16667 -0.55555,0.27778 -0.94444,0.27778c-0.27778,-0.11111 -0.61111,-0.27778 -0.88889,-0.55555c-0.27778,-0.27778 -0.44444,-0.66667 -0.61111,-1.05556c-0.16667,-0.38889 -0.27778,-0.77778 -0.27778,-1.22222c0,-0.5 0.16667,-0.88889 0.38889,-1.33333c0,0 0,0 0,0m15.27778,-2.38889c0.44444,0.05555 0.88889,0.16666 1.27778,0.27777c0,0 0,-0.27777 0,-0.27777c0,0 0,-0.66667 0,-0.66667c0,0 -0.05556,-0.44444 -0.05556,-0.5c-0.05555,-0.11111 -0.22222,-0.22222 -0.5,-0.33333c-0.27778,-0.11111 -0.72222,-0.16667 -1.33333,-0.16667c-0.38889,0 -0.77778,0 -1.16667,0.11111c-0.38889,0.11111 -0.88889,0.22222 -1.38889,0.38889c-0.27778,-0.44444 -0.44444,-0.88889 -0.61111,-1.27778c-0.16667,-0.38889 -0.27778,-0.77778 -0.27778,-1.16666c0,-0.11112 0.05556,-0.27778 0.05556,-0.38889c1.05555,-0.83334 2.44444,-1.22223 4.11111,-1.22223c0.94444,0 1.72222,0.05556 2.44444,0.27778c0.72223,0.22222 1.33334,0.61111 1.77778,1.22222c0.44445,0.61112 0.66667,1.44445 0.66667,2.55556c0,1.05556 -0.11111,2.11111 -0.38889,3.11111c-0.27778,1 -0.33333,1.55556 -0.33333,1.55556c0,0 1.38889,-0.61111 1.38889,-0.61111c0.16666,0.22222 0.33333,0.44444 0.5,0.72222c0.16666,0.27778 0.22222,0.61111 0.27777,1c-0.11111,0.22222 -0.27777,0.5 -0.61111,0.77778c-0.33333,0.27777 -0.66666,0.55555 -1.11111,0.77777c-0.44444,0.22223 -0.88889,0.38889 -1.38889,0.38889c-0.55555,0 -0.94444,-0.16666 -1.22222,-0.5c-0.27778,-0.33333 -0.38889,-0.72222 -0.38889,-1.22222c0,-0.27778 0,-0.61111 0.11111,-0.88889c0,0 -0.27778,-0.11111 -0.27778,-0.11111c-0.16666,1.05556 -0.55555,1.72222 -1.16666,2.11111c-0.61111,0.38889 -1.27778,0.61111 -2,0.61111c-0.44445,0 -0.88889,-0.16666 -1.33334,-0.44444c-0.44444,-0.27778 -0.77777,-0.61111 -1.05555,-1.11111c-0.27778,-0.5 -0.44445,-1.11111 -0.44445,-1.77778c0,-1.05556 0.27778,-1.94445 0.83334,-2.5c0.55555,-0.55556 1.27778,-0.83333 2.33333,-0.83333c0.38889,0 0.83333,0.05555 1.27778,0.11111c0,0 0,0 0,0m0.44444,3.33333c0.22223,-0.16667 0.44445,-0.27778 0.61111,-0.5c0.16667,-0.22222 0.22223,-0.44444 0.27778,-0.61111c0,0 -0.05555,-0.22222 -0.05555,-0.22222c-0.33334,-0.05556 -0.72223,-0.11111 -1.11111,-0.11111c-0.33334,0 -0.55556,0.05555 -0.66667,0.11111c-0.22222,0.22222 -0.33333,0.5 -0.33333,0.77777c0,0.22223 0.05555,0.38889 0.16666,0.55556c0.11111,0.16667 0.27778,0.27778 0.5,0.27778c0.16667,-0.05556 0.38889,-0.11111 0.61111,-0.27778c0,0 0,0 0,0" id="svg_8" stroke="null"/>
            </g>
        </g>
    </g>
    <g id="svg_63">
        <g stroke="null" transform="matrix(0.5636309376400739,0,0,0.5636309376400739,214.30657254295895,241.71411413091718) " id="svg_9">
            <svg y="-388.63807" x="511.19626" id="svg_10" width="511pt" viewBox="-48 0 511 511.99781" height="511pt" xmlns="http://www.w3.org/2000/svg">
                <g stroke="null" id="svg_32" fill="#ffeba1">
                    <path stroke="null" id="svg_35" d="m292.02344,287.55469l0,112.60156c0,10.41406 8.4414,18.85547 18.85547,18.85547c10.41406,0 18.85547,-8.44141 18.85547,-18.85547l0,-138.83594l-37.71094,26.23438zm0,0"/>
                    <path stroke="null" id="svg_34" d="m208.25781,345.82422l0,38.41016c0,10.41406 8.44141,18.85546 18.85547,18.85546c10.41406,0 18.85547,-8.4414 18.85547,-18.85546l0,-64.64454l-37.71094,26.23438zm0,0"/>
                    <path stroke="null" id="svg_33" d="m68.26953,443.19922l0,42.4375c0,10.41406 8.44141,18.85547 18.85547,18.85547s18.85547,-8.44141 18.85547,-18.85547l0,-68.66797l-37.71094,26.23047zm0,0"/>
                </g>
                <path stroke="null" id="svg_31" fill="#f7d36f" d="m311.71875,273.85547l0,126.30078c0,7.15234 -3.98047,13.37109 -9.84766,16.57031c2.67578,1.45703 5.7461,2.28516 9.00782,2.28516c10.41406,0 18.85547,-8.44141 18.85547,-18.85547l0,-138.83594l-18.01563,12.53516zm0,0"/>
                <path stroke="null" id="svg_30" fill="#f7d36f" d="m227.94922,332.12109l0,52.11329c0,7.15234 -3.98047,13.37109 -9.84375,16.5664c2.67578,1.46094 5.74219,2.28906 9.00781,2.28906c10.41406,0 18.85547,-8.4414 18.85547,-18.85546l0,-64.64454l-18.01953,12.53125zm0,0"/>
                <path stroke="null" id="svg_29" fill="#f7d36f" d="m87.96094,429.5l0,56.13672c0,7.15234 -3.98047,13.37109 -9.84375,16.56641c2.67578,1.46093 5.74219,2.28906 9.00781,2.28906c10.41406,0 18.85547,-8.44141 18.85547,-18.85547l0,-68.66797l-18.01953,12.53125zm0,0"/>
                <path stroke="null" id="svg_28" fill="#ffdb57" d="m38.625,59.07813c0.17578,-0.05469 18.39063,-5.73438 50.00391,-4.91016c30.87109,0.80469 80.01172,8.25 138.8164,39.13281c58.8086,30.88281 92.82813,67.11719 111.01172,92.07422c18.625,25.55859 24.28906,43.77734 24.33985,43.95313c0.72656,2.48046 1.84375,4.73046 3.24218,6.73828l-336.51172,234.08203l1.70313,-409.91406c2.44922,0.01171 4.94141,-0.34766 7.39453,-1.15625zm0,0"/>
                <path stroke="null" id="svg_27" fill="#f6c134" d="m353.42578,208.80469l-323.75,225.20703l-0.14844,36.13672l336.51172,-234.08203c-1.39844,-2.00782 -2.51562,-4.25782 -3.24219,-6.73829c-0.03515,-0.11328 -2.47265,-7.95703 -9.37109,-20.52343zm0,0"/>
                <path stroke="null" id="svg_26" fill="#ff9f34" d="m249.14453,52s0,0 -0.00781,-0.00391c0,0 0,0 0.00781,0.00391c-128.8125,-67.64844 -221.22656,-38.51172 -225.09765,-37.23437c-12.23829,4.02343 -18.89454,17.20703 -14.86719,29.44531c4.02344,12.23828 17.20703,18.89453 29.44531,14.86719c0.17578,-0.05469 18.39063,-5.73438 50.00391,-4.91016c30.87109,0.80469 80.01172,8.24609 138.8164,39.13281c58.8086,30.88281 92.82813,67.11719 111.01172,92.07422c18.625,25.55859 24.28906,43.77734 24.33985,43.95313c3.63281,12.35937 16.59765,19.4375 28.95703,15.80468c12.35937,-3.6289 19.43359,-16.59375 15.80468,-28.95312c-1.14843,-3.91406 -29.61328,-96.53516 -158.42578,-164.1875c0.00391,0.0039 0.00391,0.0039 0.00391,0.0039c-0.00391,-0.0039 -0.00391,-0.0039 -0.00391,-0.0039c-0.0039,0 -0.0039,0 -0.0039,0l0.01562,0.00781zm0,0"/>
                <path stroke="null" id="svg_25" fill="#fb8f2d" d="m389.32031,226.39063c-0.05859,-0.19532 -6.43359,-20.70313 -27.39453,-49.47266c-20.46484,-28.08984 -58.75781,-68.87109 -124.94531,-103.63281c-66.19141,-34.76172 -121.5,-43.13672 -156.24609,-44.04297c-35.58204,-0.92969 -56.08594,5.46094 -56.28125,5.52734c-5.52344,1.81641 -11.21485,1.69531 -16.34766,0.01953c-0.28516,3.08985 0.03906,6.28907 1.07422,9.42188c4.02344,12.23828 17.20703,18.89453 29.44531,14.86719c0.17578,-0.05469 18.39063,-5.73438 50.00391,-4.91016c30.87109,0.80469 80.01172,8.25 138.8164,39.13281c58.8086,30.88281 92.82813,67.11719 111.01172,92.07422c18.625,25.55859 24.28906,43.77734 24.33985,43.95703c3.63281,12.35938 16.59765,19.4375 28.95703,15.80469c3.08203,-0.90625 5.83984,-2.39453 8.18359,-4.30859c-4.94922,-3.30079 -8.80859,-8.28516 -10.61719,-14.4375zm0,0"/>
                <path stroke="null" id="svg_24" fill="#f2433b" d="m190.89453,206.96094c0,21.85547 -17.71484,39.57422 -39.57031,39.57422s-39.57422,-17.71875 -39.57422,-39.57422c0,-21.85547 17.71875,-39.57031 39.57422,-39.57031s39.57031,17.71484 39.57031,39.57031zm0,0"/>
                <path stroke="null" id="svg_23" fill="#d83636" d="m151.32422,219.50781c-17.10938,0 -31.67969,-10.85937 -37.20313,-26.05859c-1.53125,4.21484 -2.37109,8.76562 -2.37109,13.51172c0,21.85547 17.71875,39.57422 39.57422,39.57422s39.57031,-17.71875 39.57031,-39.57422c0,-4.7461 -0.83594,-9.29688 -2.36719,-13.51172c-5.52343,15.19922 -20.09375,26.05859 -37.20312,26.05859zm0,0"/>
                <path stroke="null" id="svg_22" fill="#f2433b" d="m30.19531,309.20703c21.54297,-0.35937 38.90235,-17.92578 38.90235,-39.55469c0,-21.51953 -17.1836,-39.01562 -38.57422,-39.54687l-0.32813,79.10156zm0,0"/>
                <path stroke="null" id="svg_21" fill="#d83636" d="m30.30859,282.17578l-0.11328,27.03125c21.54688,-0.35937 38.90235,-17.92578 38.90235,-39.55469c0,-4.74609 -0.83594,-9.29296 -2.3711,-13.51171c-5.4375,14.96484 -19.65234,25.71093 -36.41797,26.03515zm0,0"/>
                <path stroke="null" id="svg_20" fill="#f2433b" d="m260.86719,243.61719c-21.85547,0 -39.57031,17.71484 -39.57031,39.57031c0,16.49219 10.08984,30.625 24.43359,36.57031l54.67187,-38.03125c-0.76953,-21.17578 -18.17187,-38.10937 -39.53515,-38.10937zm0,0"/>
                <path stroke="null" id="svg_19" fill="#d83636" d="m287.94922,254.35156l-63.55078,44.20703c4.03906,9.57032 11.73047,17.21875 21.33203,21.19532l54.67187,-38.03125c-0.39062,-10.78516 -5.10546,-20.46094 -12.45312,-27.3711zm0,0"/>
                <path stroke="null" id="svg_18" fill="#f2433b" d="m277.76172,195.58984c20.55469,0 37.44531,-15.67578 39.38281,-35.71875c-12.61328,-13.32421 -28.8164,-27.84375 -49.37109,-42.15234c-17.01953,4.42578 -29.58203,19.89453 -29.58203,38.29688c0,21.85546 17.71484,39.57421 39.57031,39.57421zm0,0"/>
                <path stroke="null" id="svg_17" fill="#d83636" d="m309.71875,152.3125c-7.19531,9.84766 -18.82422,16.25 -31.95703,16.25c-17.10547,0 -31.67578,-10.85547 -37.19922,-26.05078c-1.53125,4.21484 -2.37109,8.76172 -2.37109,13.50391c0,21.85546 17.71484,39.57421 39.57031,39.57421c20.55469,0 37.44531,-15.67578 39.38281,-35.71875c-2.34765,-2.48437 -4.82422,-5.0039 -7.42578,-7.55859zm0,0"/>
                <path stroke="null" id="svg_16" fill="#f2433b" d="m117.6875,114.58594c21.85547,0 39.57422,-17.71875 39.57422,-39.57422c0,-3.58984 -0.48828,-7.06641 -1.38672,-10.37109c-27.10547,-7.50391 -50.01953,-10.02344 -67.24609,-10.47266c-1.54297,-0.03906 -3.04688,-0.0625 -4.53125,-0.07031c-3.78516,6.0664 -5.98047,13.23437 -5.98047,20.91406c0,21.85547 17.71484,39.57422 39.57031,39.57422zm0,0"/>
                <path stroke="null" id="svg_15" fill="#d83636" d="m153.83203,64.09375c-6.16797,13.82422 -20.02734,23.46484 -36.14453,23.46484c-17.10547,0 -31.67187,-10.85156 -37.19922,-26.04296c-1.53125,4.21093 -2.37109,8.7539 -2.37109,13.5c0,21.85156 17.71484,39.57031 39.57031,39.57031s39.57031,-17.71485 39.57031,-39.57031c0,-3.59375 -0.48437,-7.06641 -1.38281,-10.375c-0.6875,-0.19141 -1.35937,-0.36329 -2.04297,-0.54688zm0,0"/>
                <path stroke="null" id="svg_14" fill="#f2433b" d="m139.28125,343.89844c-21.85156,0 -39.57031,17.71875 -39.57031,39.57422c0,11.47265 4.88672,21.80078 12.6875,29.02734l63.46094,-44.14062c-5.9375,-14.35547 -20.07422,-24.46094 -36.57813,-24.46094zm0,0"/>
                <path stroke="null" id="svg_13" fill="#d83636" d="m154.71875,347.03125l-54.96094,38.23047c0.48047,10.75391 5.25,20.39062 12.64453,27.23828l63.45704,-44.14062c-3.96485,-9.58985 -11.59375,-17.27735 -21.14063,-21.32813zm0,0"/>
                <path stroke="null" id="svg_12" d="m414.76172,214.06641c-1.18359,-4.03516 -30.51563,-99.55078 -162.04297,-168.66797c-0.05078,-0.02735 -0.09766,-0.05469 -0.14844,-0.07813c-131.58203,-69.07812 -226.8789,-39 -230.87109,-37.6875c-16.15234,5.3125 -24.96484,22.77735 -19.65234,38.92578c2.57031,7.82422 8.03906,14.17579 15.39062,17.88672c2.01953,1.01953 4.12109,1.80078 6.25781,2.35157l-0.26172,63.42187c-0.01953,4.14844 3.32813,7.52344 7.47657,7.53906l0.03125,0c4.1289,0 7.48828,-3.33984 7.5039,-7.47656l0.26563,-63.42578c0.72656,-0.17969 1.45312,-0.37891 2.17187,-0.61719c0.13672,-0.04297 11.51563,-3.48828 31.60938,-4.41797c-1.24219,4.26172 -1.88281,8.69922 -1.88281,13.19141c0,25.96094 21.11718,47.08203 47.07812,47.08203c25.92969,0 47.03125,-21.07422 47.07813,-46.99609c18.15625,5.72656 38.01953,13.73047 59.1914,24.84765c10.19922,5.35938 19.6211,10.87891 28.33985,16.46485c-13.1875,8.48828 -21.61719,23.25781 -21.61719,39.60547c0,25.96093 21.12109,47.07812 47.08203,47.07812c19.17187,0 35.72266,-11.3125 43.05078,-27.9375c4.43359,5.19141 8.27734,10.10547 11.57813,14.63672c17.6289,24.19922 23.17578,41.57031 23.20312,41.65234c0.21875,0.75391 0.47656,1.49219 0.75,2.21875l-50.61328,35.20703c-6.03125,-19.11328 -23.80078,-32.76172 -44.86328,-32.76172c-25.96094,0 -47.07813,21.11719 -47.07813,47.07813c0,14.76172 6.8125,28.30859 18.05469,37.08203l-53.35938,37.11719c-8.61328,-12.98438 -23.1914,-20.99609 -39.20312,-20.99609c-25.96094,0 -47.07813,21.12109 -47.07813,47.07812c0,9.98047 3.21875,19.67578 9.01563,27.66406l-37.14844,25.83985l-26.98047,18.76562l0.58203,-139.74219c22.03516,-3.89843 38.92969,-23.32421 38.92969,-46.34765c0,-12.36719 -4.76172,-24.04688 -13.40234,-32.89063c-6.88672,-7.04297 -15.62891,-11.66015 -25.14453,-13.39453l0.26562,-63.05469c0.01563,-4.14843 -3.33203,-7.51953 -7.47656,-7.53906c-0.01172,0 -0.01953,0 -0.03125,0c-4.13281,0 -7.48828,3.34375 -7.50781,7.47656l-1.28907,309.8711c-0.02343,5.94531 6.89063,9.60547 11.79297,6.19531l26.94922,-18.74609l0,28.07031c0,14.53516 11.82813,26.35937 26.36328,26.35937c14.53907,0 26.36328,-11.82421 26.36328,-26.35937l0,-64.74609l87.26172,-60.70313l0,24.04297c0,14.53906 11.82813,26.36328 26.36328,26.36328c14.53907,0 26.36329,-11.82422 26.36329,-26.36328l0,-60.71875l31.04296,-21.59375l0,98.23828c0,14.53516 11.82422,26.36328 26.36329,26.36328c14.53515,0 26.36328,-11.82812 26.36328,-26.36328l0,-26.49609c0,-4.14453 -3.36328,-7.50391 -7.50782,-7.50391c-4.14843,0 -7.50781,3.35938 -7.50781,7.50391l0,26.49609c0,6.25781 -5.08984,11.34766 -11.34765,11.34766c-6.25782,0 -11.35157,-5.08985 -11.35157,-11.34766l0,-108.67969l22.69922,-15.78906l0,67.94922c0,4.08984 3.41406,7.50781 7.50781,7.50781c4.08985,0 7.50782,-3.41797 7.50782,-7.50781l0,-78.39453l27.66797,-19.2461c1.67187,1.44922 3.5039,2.73828 5.49218,3.82032c7.15235,3.90234 15.64844,4.8164 23.46485,2.51953c7.90234,-2.32032 14.42578,-7.57813 18.375,-14.8086c3.94531,-7.23047 4.83984,-15.5625 2.51953,-23.46093zm-353.17188,55.58593c0,14.73829 -10.16406,27.3125 -23.85156,30.97266l0.25781,-61.91016c13.70313,3.67579 23.59375,16.0586 23.59375,30.9375zm88.16407,-194.64062c0,17.68359 -14.38672,32.0664 -32.06641,32.0664s-32.0625,-14.38281 -32.0625,-32.0664c0,-4.62891 1.00391,-9.16797 2.91406,-13.33594c15.79297,0.41797 36.5,2.63672 60.91797,9.00781c0.19531,1.4375 0.29688,2.88282 0.29688,4.32813zm128.00781,113.07031c-17.67969,0 -32.06641,-14.38281 -32.06641,-32.06641c0,-13.47656 8.40625,-25.38281 20.79688,-30.01953c17.36328,12.35938 31.41797,24.8125 42.69531,36.41797c-2.96875,14.84375 -15.94141,25.66797 -31.42578,25.66797zm-16.89453,63.04297c15.99609,0 29.20312,11.55469 31.64453,26.94531l-47.44531,33.00391c-9.98828,-5.64844 -16.26563,-16.19922 -16.26563,-27.88672c0.00391,-17.67969 14.38672,-32.0625 32.06641,-32.0625zm-121.58203,100.28125c11.00781,0 21.01172,5.57422 26.85156,14.57031l-52.60547,36.59375c-4.09766,-5.48047 -6.3125,-12.08593 -6.3125,-19.09765c0,-17.6836 14.38281,-32.06641 32.06641,-32.06641zm-40.8125,134.23047c0,6.25781 -5.08985,11.34766 -11.34766,11.34766s-11.35156,-5.08985 -11.35156,-11.34766l0,-38.51172l22.69922,-15.78906l0,54.30078zm139.98828,-101.40234c0,6.25781 -5.08985,11.34765 -11.34766,11.34765c-6.25781,0 -11.35156,-5.08984 -11.35156,-11.34765l0,-34.48829l22.69922,-15.78906l0,50.27735zm160.60156,-153.90235c-2.91797,5.34766 -8.80859,8.60156 -14.89453,8.21875c-6.55078,-0.41406 -12.31641,-5.03906 -14.16797,-11.33203c-0.05469,-0.1875 -5.76172,-19.20703 -25.47266,-46.26562c-13.89062,-19.0625 -36.76953,-44.52344 -72.34375,-69.3086c-54.41015,-38.08594 -122.75,-65.0664 -189.85546,-65.0664c-29.39063,0 -45.87891,5.3125 -46.05079,5.37109c-8.1914,2.69141 -17.28125,-1.90625 -19.96875,-10.08203c-2.72656,-8.28906 1.79688,-17.2461 10.08204,-19.97266c3.74609,-1.23437 93.17578,-29.44141 219.1914,36.71485c0.00391,0.0039 0.01172,0.00781 0.01953,0.01171c0.03125,0.01563 0.0625,0.03125 0.09766,0.05079c125.98437,66.1914 153.54297,155.83984 154.65625,159.625c1.19141,4.05468 0.73047,8.32812 -1.29297,12.03515zm0,0"/>
                <path stroke="null" id="svg_11" d="m173.84375,240.35547c2.91797,2.94531 7.66797,2.96875 10.61328,0.05078c8.99219,-8.91016 13.94531,-20.78906 13.94531,-33.44531c0,-25.95703 -21.12109,-47.07813 -47.07812,-47.07813c-25.96094,0 -47.08203,21.1211 -47.08203,47.07813c0,25.96094 21.12109,47.07812 47.08203,47.07812c4.14453,0 7.50391,-3.35937 7.50391,-7.5039c0,-4.14844 -3.35938,-7.50782 -7.50391,-7.50782c-17.68359,0 -32.06641,-14.38671 -32.06641,-32.0664c0,-17.67969 14.38282,-32.0625 32.06641,-32.0625c17.67969,0 32.0625,14.38281 32.0625,32.0625c0,8.62109 -3.37109,16.71094 -9.49609,22.78125c-2.94532,2.91797 -2.96875,7.67187 -0.04688,10.61328zm0,0"/>
            </svg>
        </g>
    </g>
</svg>
